<?xml version="1.0" encoding="utf-8"?>
<!-- Generator: Adobe Illustrator 24.2.1, SVG Export Plug-In . SVG Version: 6.00 Build 0)  -->
<svg version="1.1" id="Layer_1" xmlns="http://www.w3.org/2000/svg" xmlns:xlink="http://www.w3.org/1999/xlink" x="0px" y="0px"
	 viewBox="0 0 158.9 130.7" style="enable-background:new 0 0 158.9 130.7;" xml:space="preserve">
<style type="text/css">
	.st0{fill:#4D4D4D;}
</style>
<path class="st0" d="M33.6,10.3c-0.2,0.2-0.5,0.3-0.8,0.3H12.5c-0.2,0-0.4,0.1-0.5,0.3V11v17.7c0,0.2,0.1,0.4,0.3,0.5h0.1h12
	c0.6,0,1.1,0.5,1.1,1.1l0,0v7.2c0,0.3-0.1,0.6-0.3,0.8c-0.2,0.2-0.5,0.3-0.8,0.3h-12c-0.2,0-0.4,0.1-0.5,0.4v0.1v17.8
	c0,0.2,0.1,0.4,0.3,0.5h0.1h20.3c0.6,0,1.1,0.5,1.1,1.1l0,0v7.1c0,0.6-0.5,1.1-1.1,1.1H2.3c-0.6,0-1.1-0.5-1.1-1.1V2.4
	c0-0.6,0.5-1.1,1.1-1.1l0,0h30.5c0.6,0,1.1,0.5,1.1,1.1l0,0v7.1C33.9,9.8,33.8,10.1,33.6,10.3z"/>
<path class="st0" d="M44.2,63c-3.2-3.1-4.8-7.2-4.8-12.3V17.5c0-5.1,1.6-9.2,4.8-12.3S51.7,0.5,57,0.5S66.6,2,69.9,5.1
	s4.9,7.2,4.9,12.4v3.7c0,0.3-0.1,0.6-0.3,0.8c-0.2,0.2-0.5,0.3-0.8,0.3h-8.6c-0.6,0-1.1-0.5-1.1-1.1v-3.9c0.1-2-0.6-3.9-1.9-5.4
	c-1.3-1.4-3.1-2.1-5-2.1c-1.9-0.1-3.7,0.7-5,2.1c-1.3,1.5-2,3.5-1.9,5.4v33.4c-0.1,2,0.6,3.9,1.9,5.4c1.3,1.4,3.1,2.1,5,2.1
	c1.9,0.1,3.7-0.7,5-2.1c1.3-1.5,2-3.5,1.9-5.4v-9c0-0.2-0.1-0.4-0.4-0.5h-0.1h-5.7c-0.3,0-0.6-0.1-0.8-0.3s-0.3-0.5-0.3-0.8v-6.9
	c0-0.3,0.1-0.6,0.3-0.8s0.5-0.3,0.8-0.3h15.9c0.6,0,1.1,0.5,1.1,1.1v17.4c0,5.1-1.6,9.2-4.9,12.3c-3.3,3.1-7.6,4.6-12.9,4.7
	C51.7,67.7,47.4,66.2,44.2,63z"/>
<path class="st0" d="M87.1,63c-3.2-3.1-4.8-7.2-4.8-12.3V17.5c0-5.1,1.6-9.2,4.8-12.3c3.2-3.1,7.5-4.6,12.8-4.6s9.6,1.6,12.9,4.6
	s4.9,7.2,4.9,12.4v3.7c0,0.3-0.1,0.6-0.3,0.8c-0.2,0.2-0.5,0.3-0.8,0.3H108c-0.6,0-1.1-0.5-1.1-1.1v-3.9c0.1-2-0.6-3.9-1.9-5.4
	c-1.3-1.4-3.1-2.1-5-2.1c-1.9-0.1-3.7,0.7-5,2.1c-1.3,1.5-2,3.5-1.9,5.4v33.4c-0.1,2,0.6,3.9,1.9,5.4c1.3,1.4,3.1,2.1,5,2.1
	c1.9,0.1,3.7-0.7,5-2.1c1.3-1.5,2-3.5,1.9-5.4v-9c0-0.2-0.1-0.4-0.4-0.5h-0.1h-5.6c-0.3,0-0.6-0.1-0.8-0.3c-0.2-0.2-0.3-0.5-0.3-0.8
	v-6.9c0-0.3,0.1-0.6,0.3-0.8c0.2-0.2,0.5-0.3,0.8-0.3h16c0.6,0.1,1,0.6,1,1.1v17.4c0,5.1-1.6,9.2-4.9,12.3
	c-3.3,3.1-7.6,4.6-12.9,4.7C94.6,67.7,90.3,66.1,87.1,63z"/>
<path class="st0" d="M129.2,63c-3.2-3.1-4.8-7.2-4.8-12.3v-2.4c0-0.3,0.1-0.6,0.3-0.8c0.2-0.2,0.5-0.3,0.8-0.3h8.5
	c0.3,0,0.6,0.1,0.8,0.3s0.3,0.5,0.3,0.8v1.9c-0.1,2.1,0.5,4.2,1.8,5.9c1.1,1.5,2.9,2.3,4.7,2.2c1.8,0,3.6-0.7,4.8-2.1
	c1.3-1.6,2-3.6,1.9-5.6c0-1.5-0.3-2.9-1-4.2c-0.8-1.3-1.8-2.4-2.9-3.4c-1.2-1.1-3.2-2.6-6-4.6c-2.6-1.9-5.1-3.9-7.6-6
	c-2-1.8-3.6-4-4.8-6.3c-1.3-2.7-2-5.6-1.9-8.6c0-5.2,1.6-9.3,4.7-12.4s7.3-4.6,12.4-4.6c5.2,0,9.4,1.6,12.6,4.8s4.8,7.5,4.8,12.8
	v2.3c0,0.3-0.1,0.6-0.3,0.8c-0.2,0.2-0.5,0.3-0.8,0.3h-8.4c-0.3,0-0.6-0.1-0.8-0.3c-0.2-0.2-0.3-0.5-0.3-0.8V18
	c0.1-2.1-0.5-4.2-1.8-5.9c-1.2-1.4-3-2.3-4.8-2.2c-1.8-0.1-3.4,0.7-4.6,2c-1.3,1.6-1.9,3.6-1.8,5.6c-0.1,2.1,0.6,4.1,1.9,5.7
	c2.3,2.5,4.8,4.6,7.5,6.5c3,2.2,5.9,4.5,8.6,6.9c1.8,1.7,3.4,3.6,4.5,5.9c1.1,2.4,1.7,5,1.6,7.6c0,5.3-1.6,9.6-4.8,12.8
	s-7.4,4.8-12.6,4.8C136.6,67.7,132.4,66.2,129.2,63z"/>
<path class="st0" d="M18.7,117.8l-1.1-6.1c0-0.2-0.1-0.3-0.4-0.3H8.7c-0.2,0-0.4,0.1-0.4,0.3l-1.1,6.1c0,0.4-0.3,0.6-0.7,0.6H6.4
	H1.2c-0.5,0-0.8-0.2-0.6-0.8l8.7-39.3c0-0.4,0.4-0.7,0.8-0.6l0,0h6.2c0.4,0,0.7,0.2,0.8,0.6l0,0l8.6,39.3v0.2c0,0.4-0.2,0.5-0.6,0.5
	h-5.4C19,118.5,18.7,118.2,18.7,117.8z M9.7,106.1h6.5c0.2,0,0.3-0.1,0.3-0.3l-3.4-18.4c0-0.1-0.1-0.2-0.2-0.2s-0.1,0.1-0.2,0.2
	l-3.3,18.4C9.4,106,9.5,106.1,9.7,106.1z"/>
<path class="st0" d="M29.4,118.3c-0.1-0.1-0.2-0.3-0.2-0.5V78.4c0-0.4,0.3-0.7,0.7-0.7l0,0h5.4c0.2,0,0.4,0.1,0.5,0.2
	s0.2,0.3,0.2,0.5v33.9c0,0.1,0.1,0.3,0.2,0.3h0.1h12.6c0.2,0,0.4,0.1,0.5,0.2s0.2,0.3,0.2,0.5v4.4c0,0.2-0.1,0.4-0.2,0.5
	c-0.1,0.1-0.3,0.2-0.5,0.2h-19C29.7,118.4,29.5,118.4,29.4,118.3z"/>
<path class="st0" d="M53.2,118.3c-0.1-0.1-0.2-0.3-0.2-0.5V78.4c0-0.2,0.1-0.4,0.2-0.5c0.1-0.1,0.3-0.2,0.5-0.2H59
	c0.4,0,0.7,0.3,0.7,0.7l0,0v33.9c0,0.1,0.1,0.3,0.2,0.3c0,0,0,0,0.1,0h12.6c0.2,0,0.4,0.1,0.5,0.2s0.2,0.3,0.2,0.5v4.4
	c0,0.4-0.3,0.7-0.7,0.7l0,0H53.7C53.5,118.4,53.3,118.4,53.2,118.3z"/>
<path class="st0" d="M86.7,118.3c-0.1-0.1-0.2-0.3-0.2-0.5V78.4c0-0.4,0.3-0.7,0.7-0.7l0,0h9.9c3-0.1,5.9,0.9,8,3
	c2.1,2.2,3.1,5.1,3,8.1v18.5c0.1,3-0.9,5.9-3,8.1c-2.1,2.1-5,3.1-8,3h-9.9C87.1,118.4,86.9,118.4,86.7,118.3z M93.5,112.6l3.5-0.1
	c1.2,0,2.4-0.6,3.1-1.5c0.8-1.2,1.3-2.6,1.2-4.1V89.3c0.1-1.5-0.3-2.9-1.2-4.2c-0.8-1-2-1.6-3.2-1.5h-3.4c-0.2,0-0.3,0.1-0.3,0.3
	v28.5C93.2,112.5,93.3,112.6,93.5,112.6C93.5,112.7,93.5,112.7,93.5,112.6L93.5,112.6z"/>
<path class="st0" d="M128.6,117.8l-1.1-6.1c0-0.2-0.1-0.3-0.4-0.3h-8.5c-0.2,0-0.3,0.1-0.3,0.3l-1.1,6.1c0,0.4-0.3,0.6-0.8,0.6h-5.3
	c-0.5,0-0.8-0.2-0.6-0.8l8.6-39.3c0-0.4,0.4-0.7,0.7-0.6l0,0h6.2c0.4,0,0.7,0.2,0.7,0.6l0,0l8.6,39.3v0.2c0,0.4-0.2,0.5-0.6,0.5
	h-5.4C128.9,118.5,128.6,118.2,128.6,117.8z M119.6,106.1h6.5c0.2,0,0.3-0.1,0.3-0.3L123,87.5c0-0.1-0.1-0.2-0.2-0.2
	s-0.1,0.1-0.2,0.2l-3.3,18.4C119.3,106,119.4,106.1,119.6,106.1L119.6,106.1z"/>
<path class="st0" d="M142.9,118.2c-0.1-0.1-0.2-0.3-0.2-0.5v-15.9l-0.1-0.3l-8.1-22.9c0-0.1-0.1-0.2-0.1-0.3c0-0.3,0.2-0.5,0.6-0.5
	h5.5c0.4,0,0.7,0.2,0.8,0.6l4.4,15c0,0.1,0.1,0.2,0.2,0.2s0.1,0,0.2-0.2l4.4-15c0.1-0.4,0.4-0.6,0.8-0.6h5.6c0.2,0,0.4,0.1,0.5,0.2
	c0.1,0.2,0.1,0.4,0.1,0.6l-8.1,22.9v0.3v15.9c0,0.2-0.1,0.4-0.2,0.5c-0.1,0.1-0.3,0.2-0.5,0.2h-5.4
	C143.2,118.4,143.1,118.3,142.9,118.2z"/>
</svg>
