<?xml version="1.0" encoding="utf-8"?>
<!-- Generator: Adobe Illustrator 24.2.1, SVG Export Plug-In . SVG Version: 6.00 Build 0)  -->
<svg version="1.1" id="Layer_1" xmlns="http://www.w3.org/2000/svg" xmlns:xlink="http://www.w3.org/1999/xlink" x="0px" y="0px"
	 viewBox="0 0 179.2 31.5" style="enable-background:new 0 0 179.2 31.5;" xml:space="preserve">
<style type="text/css">
	.st0{fill:#4D4D4D;}
</style>
<path class="st0" d="M16,6c-0.1,0.1-0.2,0.1-0.3,0.1H7.6c-0.1,0-0.2,0.1-0.2,0.1c0,0,0,0,0,0v7.1c0,0.1,0.1,0.2,0.1,0.2c0,0,0,0,0,0
	h4.8c0.2,0,0.4,0.2,0.4,0.4c0,0,0,0,0,0v3c0,0.3-0.2,0.5-0.4,0.5H7.6c-0.1,0-0.2,0.1-0.2,0.1c0,0,0,0,0,0v7.1c0,0.1,0.1,0.2,0.1,0.2
	c0,0,0,0,0,0h8.1c0.2,0,0.4,0.2,0.5,0.4c0,0,0,0,0,0v2.9c0,0.2-0.2,0.4-0.4,0.5c0,0,0,0,0,0H3.5c-0.2,0-0.4-0.2-0.5-0.4c0,0,0,0,0,0
	V2.8c0-0.1,0-0.2,0.1-0.3c0.1-0.1,0.2-0.1,0.3-0.1h12.2c0.1,0,0.2,0.1,0.3,0.1c0.1,0.1,0.1,0.2,0.1,0.3v2.8C16.1,5.8,16.1,5.9,16,6z
	"/>
<path class="st0" d="M20.5,27.1c-1.3-1.3-2-3.1-1.9-4.9V8.9c-0.1-1.8,0.6-3.6,1.9-4.9c1.4-1.3,3.2-1.9,5.1-1.9
	c1.9-0.1,3.8,0.6,5.2,1.9c1.4,1.3,2.1,3.1,2,5v1.5c0,0.2-0.2,0.4-0.4,0.4c0,0,0,0,0,0h-3.5c-0.1,0-0.2,0-0.3-0.1
	c-0.1-0.1-0.1-0.2-0.1-0.3V8.9c0-0.8-0.2-1.6-0.8-2.2c-0.5-0.6-1.2-0.9-2-0.8c-0.8,0-1.5,0.3-2,0.8c-0.5,0.6-0.8,1.4-0.8,2.2v13.4
	c0,0.8,0.2,1.6,0.8,2.2c0.5,0.6,1.2,0.9,2,0.8c0.8,0,1.5-0.3,2-0.8c0.5-0.6,0.8-1.4,0.8-2.2v-3.6c0-0.1-0.1-0.2-0.2-0.2h-2.3
	c-0.1,0-0.2,0-0.3-0.1c-0.1-0.1-0.1-0.2-0.1-0.3v-2.7c0-0.1,0-0.2,0.1-0.3c0.1-0.1,0.2-0.1,0.3-0.1h6.4c0.2,0,0.4,0.2,0.5,0.4
	c0,0,0,0,0,0v6.9c0.1,1.9-0.7,3.7-2,4.9c-1.4,1.3-3.2,2-5.1,1.9C23.7,29.1,21.9,28.4,20.5,27.1z"/>
<path class="st0" d="M37.7,27.1c-1.3-1.3-2-3.1-1.9-4.9V8.9c-0.1-1.8,0.6-3.6,1.9-4.9c1.4-1.3,3.2-1.9,5.1-1.9C44.7,2,46.6,2.7,48,4
	c1.4,1.3,2.1,3.1,2,5v1.5c0,0.2-0.2,0.4-0.4,0.4c0,0,0,0,0,0H46c-0.1,0-0.2,0-0.3-0.1c-0.1-0.1-0.1-0.2-0.1-0.3V8.9
	c0-0.8-0.2-1.6-0.8-2.2c-0.5-0.5-1.2-0.9-2-0.8c-0.8,0-1.5,0.3-2,0.8C40.3,7.3,40,8.1,40,8.9v13.4c0,0.8,0.2,1.6,0.8,2.2
	c0.5,0.6,1.2,0.9,2,0.8c0.8,0,1.5-0.3,2-0.8c0.5-0.6,0.8-1.4,0.8-2.2v-3.6c0-0.1-0.1-0.2-0.1-0.2c0,0,0,0,0,0h-2.3
	c-0.1,0-0.2,0-0.3-0.1c-0.1-0.1-0.1-0.2-0.1-0.3v-2.7c0-0.2,0.2-0.4,0.4-0.4c0,0,0,0,0,0h6.4c0.2,0,0.4,0.2,0.5,0.4c0,0,0,0,0,0v6.9
	c0.1,1.9-0.7,3.7-2,4.9c-1.4,1.3-3.2,2-5.1,1.9C40.9,29.1,39.1,28.4,37.7,27.1z"/>
<path class="st0" d="M54.5,27.1c-1.3-1.3-2-3.1-1.9-4.9v-1c0-0.2,0.2-0.4,0.4-0.5c0,0,0,0,0,0h3.4c0.1,0,0.2,0,0.3,0.1
	c0.1,0.1,0.1,0.2,0.1,0.3V22c0,0.8,0.2,1.7,0.7,2.4c0.4,0.6,1.2,0.9,1.9,0.9c0.7,0,1.4-0.3,1.9-0.9c0.5-0.6,0.8-1.4,0.8-2.2
	c0-0.6-0.1-1.2-0.4-1.7c-0.3-0.5-0.7-1-1.2-1.4c-0.5-0.4-1.3-1-2.4-1.9c-1-0.7-2-1.5-3-2.4c-0.8-0.7-1.4-1.6-1.9-2.5
	c-0.5-1.1-0.8-2.2-0.8-3.4c-0.1-1.9,0.6-3.7,1.9-5c2.9-2.5,7.2-2.5,10,0.1c1.3,1.4,2,3.2,1.9,5.1v0.9c0,0.1,0,0.2-0.1,0.3
	c-0.1,0.1-0.2,0.1-0.3,0.1h-3.4c-0.1,0-0.2-0.1-0.3-0.1c-0.1-0.1-0.1-0.2-0.1-0.3v-1c0-0.8-0.2-1.7-0.7-2.3
	c-0.5-0.6-1.2-0.9-1.9-0.9c-0.7,0-1.4,0.3-1.8,0.8c-0.5,0.6-0.8,1.4-0.7,2.2c0,0.8,0.2,1.6,0.8,2.3c0.9,1,1.9,1.8,3,2.6
	c1.5,1.1,2.7,2.1,3.4,2.8c0.7,0.7,1.4,1.5,1.8,2.4c0.4,0.9,0.7,2,0.6,3c0.1,1.9-0.6,3.8-1.9,5.1c-1.3,1.3-3.1,2-5,1.9
	C57.7,29,55.9,28.4,54.5,27.1z"/>
<path class="st0" d="M87,28.3l-0.7-4c0-0.1-0.1-0.2-0.2-0.2h-5.5c-0.2,0-0.2,0.1-0.2,0.2l-0.7,4c0,0.2-0.2,0.4-0.4,0.4c0,0,0,0,0,0
	h-3.4c-0.3,0-0.5-0.2-0.4-0.5l5.6-25.4c0-0.2,0.2-0.4,0.5-0.4c0,0,0,0,0,0h4c0.2,0,0.5,0.2,0.5,0.4c0,0,0,0,0,0l5.6,25.4v0.1
	c0,0.2-0.1,0.3-0.4,0.3h-3.5C87.1,28.7,87,28.5,87,28.3z M81.2,20.7h4.2c0.2,0,0.2-0.1,0.2-0.2L83.3,8.7c0-0.1-0.1-0.1-0.1-0.1
	s-0.1,0-0.1,0.1L81,20.5C81,20.7,81,20.7,81.2,20.7L81.2,20.7z"/>
<path class="st0" d="M93.7,28.5c-0.1-0.1-0.1-0.2-0.1-0.3V2.8c0-0.1,0-0.2,0.1-0.3c0.1-0.1,0.2-0.1,0.3-0.1h3.4
	c0.1,0,0.2,0.1,0.3,0.1c0.1,0.1,0.1,0.2,0.1,0.3v21.9c0,0.1,0.1,0.2,0.1,0.2c0,0,0,0,0,0h8.1c0.2,0,0.4,0.2,0.4,0.4c0,0,0,0,0,0v2.9
	c0,0.2-0.2,0.4-0.4,0.5c0,0,0,0,0,0H94C93.9,28.7,93.7,28.6,93.7,28.5z"/>
<path class="st0" d="M108.9,28.5c-0.1-0.1-0.1-0.2-0.1-0.3V2.8c0-0.3,0.2-0.5,0.4-0.5h3.5c0.3,0,0.5,0.2,0.4,0.5v21.9
	c0,0.1,0.1,0.2,0.1,0.2c0,0,0,0,0,0h8.1c0.1,0,0.2,0,0.3,0.1c0.1,0.1,0.1,0.2,0.1,0.3v2.9c0,0.1,0,0.2-0.1,0.3
	c-0.1,0.1-0.2,0.1-0.3,0.1h-12.2C109.1,28.7,109,28.6,108.9,28.5z"/>
<path class="st0" d="M131.6,28.5c-0.1-0.1-0.1-0.2-0.1-0.3V2.8c0-0.1,0-0.2,0.1-0.3c0.1-0.1,0.2-0.1,0.3-0.1h6.4
	c1.9-0.1,3.8,0.7,5.2,2c1.3,1.4,2,3.3,1.9,5.2v11.9c0.1,1.9-0.6,3.8-1.9,5.2c-1.4,1.3-3.3,2-5.2,2H132
	C131.9,28.7,131.7,28.6,131.6,28.5z M136.1,24.9h2.3c0.8,0,1.5-0.4,2-1c0.5-0.8,0.8-1.7,0.8-2.6V9.8c0.1-1-0.2-1.9-0.8-2.7
	c-0.5-0.7-1.3-1-2.1-1H136c-0.1,0-0.2,0.1-0.2,0.2v18.4C135.9,24.8,135.9,24.9,136.1,24.9C136,24.9,136,24.9,136.1,24.9z"/>
<path class="st0" d="M158.7,28.3l-0.7-4c0-0.1-0.1-0.2-0.2-0.2h-5.5c-0.1,0-0.2,0.1-0.2,0.2l-0.7,4c0,0.2-0.2,0.4-0.4,0.4
	c0,0,0,0,0,0h-3.5c-0.4,0-0.5-0.2-0.4-0.5l5.6-25.4c0-0.2,0.2-0.4,0.5-0.4c0,0,0,0,0,0h4c0.3,0,0.5,0.2,0.5,0.4l5.6,25.4v0.1
	c0,0.2-0.1,0.3-0.4,0.3h-3.5C158.9,28.7,158.7,28.5,158.7,28.3z M152.9,20.7h4.2c0.1,0,0.2-0.1,0.2-0.2l-2.2-11.9
	c0-0.1,0-0.1-0.1-0.1c-0.1,0-0.1,0-0.1,0.1l-2.1,11.9C152.7,20.7,152.7,20.7,152.9,20.7z"/>
<path class="st0" d="M167.7,28.5c-0.1-0.1-0.1-0.2-0.1-0.3V17.9v-0.2l-5.2-14.8c0-0.1,0-0.1,0-0.2c0-0.2,0.1-0.3,0.4-0.3h3.6
	c0.2,0,0.5,0.1,0.5,0.4l2.8,9.6c0,0.1,0.1,0.1,0.1,0.1s0.1,0,0.1-0.1l2.8-9.6c0.1-0.2,0.3-0.4,0.5-0.4h3.6c0.1,0,0.2,0,0.3,0.1
	c0.1,0.1,0.1,0.3,0,0.4L172,17.7v0.2v10.3c0,0.2-0.2,0.4-0.4,0.5c0,0,0,0,0,0h-3.4C168,28.7,167.8,28.6,167.7,28.5z"/>
</svg>
