<svg id="Layer_1" data-name="Layer 1" xmlns="http://www.w3.org/2000/svg" viewBox="0 0 179.17 31.52"><defs><style>.cls-1{fill:#fc0;}</style></defs><path class="cls-1" d="M16.08,6.23a.42.42,0,0,1-.32.13H7.65a.17.17,0,0,0-.19.19v7.09a.17.17,0,0,0,.19.19h4.81a.44.44,0,0,1,.45.45v2.89a.44.44,0,0,1-.13.32.44.44,0,0,1-.32.13H7.65a.17.17,0,0,0-.19.19V25c0,.12.06.18.19.18h8.11a.43.43,0,0,1,.32.14.4.4,0,0,1,.13.31v2.86a.44.44,0,0,1-.13.32.42.42,0,0,1-.32.13H3.56a.41.41,0,0,1-.32-.13.44.44,0,0,1-.13-.32V3.05a.4.4,0,0,1,.13-.31.42.42,0,0,1,.32-.14h12.2a.43.43,0,0,1,.32.14.4.4,0,0,1,.13.31V5.91A.44.44,0,0,1,16.08,6.23Z"/><path class="cls-1" d="M20.55,27.33a6.53,6.53,0,0,1-1.94-4.94V9.1a6.54,6.54,0,0,1,1.94-4.94A7.08,7.08,0,0,1,25.67,2.3a7.24,7.24,0,0,1,5.17,1.86,6.54,6.54,0,0,1,2,5V10.6a.42.42,0,0,1-.13.32.44.44,0,0,1-.32.13H28.9a.4.4,0,0,1-.31-.13.43.43,0,0,1-.14-.32V9.06a3.06,3.06,0,0,0-.77-2.18,2.61,2.61,0,0,0-2-.82,2.57,2.57,0,0,0-2,.82,3.14,3.14,0,0,0-.75,2.18V22.43a3.12,3.12,0,0,0,.75,2.18,2.57,2.57,0,0,0,2,.83,2.62,2.62,0,0,0,2-.83,3,3,0,0,0,.77-2.18v-3.6c0-.13-.06-.19-.18-.19H26a.46.46,0,0,1-.46-.45V15.45a.42.42,0,0,1,.14-.32A.41.41,0,0,1,26,15h6.38a.44.44,0,0,1,.32.13.41.41,0,0,1,.13.32v6.94a6.48,6.48,0,0,1-2,4.94,7.24,7.24,0,0,1-5.17,1.86A7.08,7.08,0,0,1,20.55,27.33Z"/><path class="cls-1" d="M37.71,27.33a6.52,6.52,0,0,1-1.93-4.94V9.1a6.54,6.54,0,0,1,1.93-4.94A7.08,7.08,0,0,1,42.83,2.3,7.24,7.24,0,0,1,48,4.16a6.54,6.54,0,0,1,2,5V10.6a.42.42,0,0,1-.13.32.44.44,0,0,1-.32.13H46.06a.44.44,0,0,1-.32-.13.46.46,0,0,1-.13-.32V9.06a3.06,3.06,0,0,0-.77-2.18,2.61,2.61,0,0,0-2-.82,2.58,2.58,0,0,0-2,.82,3.14,3.14,0,0,0-.75,2.18V22.43a3.12,3.12,0,0,0,.75,2.18,2.59,2.59,0,0,0,2,.83,2.62,2.62,0,0,0,2-.83,3,3,0,0,0,.77-2.18v-3.6c0-.13-.06-.19-.18-.19h-2.3a.44.44,0,0,1-.31-.13.45.45,0,0,1-.14-.32V15.45a.42.42,0,0,1,.14-.32.4.4,0,0,1,.31-.13h6.39a.44.44,0,0,1,.32.13.41.41,0,0,1,.13.32v6.94a6.48,6.48,0,0,1-2,4.94,7.24,7.24,0,0,1-5.17,1.86A7.08,7.08,0,0,1,37.71,27.33Z"/><path class="cls-1" d="M54.55,27.31a6.56,6.56,0,0,1-1.91-4.92v-1a.42.42,0,0,1,.13-.32.41.41,0,0,1,.32-.13H56.5a.44.44,0,0,1,.45.45v.75a3.62,3.62,0,0,0,.74,2.36,2.33,2.33,0,0,0,1.89.91,2.47,2.47,0,0,0,1.92-.85,3.23,3.23,0,0,0,.75-2.23,3.36,3.36,0,0,0-.41-1.69,5.41,5.41,0,0,0-1.17-1.36c-.5-.42-1.3-1-2.4-1.84a35,35,0,0,1-3-2.4,9.16,9.16,0,0,1-1.91-2.53,7.42,7.42,0,0,1-.77-3.44,6.64,6.64,0,0,1,1.88-5,7.55,7.55,0,0,1,10,.1,7,7,0,0,1,1.91,5.12v.9a.41.41,0,0,1-.13.32.42.42,0,0,1-.32.13H62.51a.44.44,0,0,1-.32-.13.41.41,0,0,1-.13-.32v-1a3.55,3.55,0,0,0-.73-2.35,2.38,2.38,0,0,0-1.94-.88,2.31,2.31,0,0,0-1.83.81,3.22,3.22,0,0,0-.72,2.23,3.5,3.5,0,0,0,.77,2.29,17.67,17.67,0,0,0,3,2.59q2.29,1.69,3.46,2.76a8.24,8.24,0,0,1,1.8,2.35,6.65,6.65,0,0,1,.64,3,7,7,0,0,1-1.92,5.13,6.74,6.74,0,0,1-5,1.93A6.88,6.88,0,0,1,54.55,27.31Z"/><path class="cls-1" d="M87,28.48l-.71-3.95c0-.12-.07-.18-.22-.18H80.57c-.15,0-.22.06-.22.18l-.72,3.95c0,.27-.18.41-.48.41H75.73c-.35,0-.49-.16-.41-.49L80.87,3a.46.46,0,0,1,.49-.42h4a.45.45,0,0,1,.49.42L91.39,28.4v.15c0,.23-.14.34-.42.34H87.48A.43.43,0,0,1,87,28.48Zm-5.78-7.55h4.17c.15,0,.21-.06.19-.19L83.39,8.87c0-.07-.06-.11-.11-.11s-.09,0-.12.11L81,20.74C81,20.87,81.06,20.93,81.21,20.93Z"/><path class="cls-1" d="M93.7,28.76a.45.45,0,0,1-.14-.32V3.05a.41.41,0,0,1,.14-.31A.42.42,0,0,1,94,2.6h3.45a.43.43,0,0,1,.32.14.4.4,0,0,1,.13.31V25c0,.12.06.18.19.18h8.11a.45.45,0,0,1,.32.14.4.4,0,0,1,.13.31v2.86a.44.44,0,0,1-.45.45H94A.41.41,0,0,1,93.7,28.76Z"/><path class="cls-1" d="M109,28.76a.44.44,0,0,1-.13-.32V3.05a.4.4,0,0,1,.13-.31.43.43,0,0,1,.32-.14h3.45a.43.43,0,0,1,.32.14.4.4,0,0,1,.13.31V25a.17.17,0,0,0,.19.18h8.11a.43.43,0,0,1,.32.14.4.4,0,0,1,.13.31v2.86a.44.44,0,0,1-.13.32.42.42,0,0,1-.32.13H109.3A.42.42,0,0,1,109,28.76Z"/><path class="cls-1" d="M131.7,28.76a.44.44,0,0,1-.13-.32V3.05a.4.4,0,0,1,.13-.31A.43.43,0,0,1,132,2.6h6.42a7,7,0,0,1,5.16,2,7.09,7.09,0,0,1,1.94,5.22V21.72a7.1,7.1,0,0,1-1.94,5.22,6.94,6.94,0,0,1-5.16,1.95H132A.42.42,0,0,1,131.7,28.76Zm4.41-3.63,2.25,0a2.4,2.4,0,0,0,2-1,4.35,4.35,0,0,0,.81-2.65V10a4.32,4.32,0,0,0-.77-2.69,2.5,2.5,0,0,0-2.08-1h-2.22a.17.17,0,0,0-.19.19V25C135.92,25.07,136,25.13,136.11,25.13Z"/><path class="cls-1" d="M158.72,28.48,158,24.53c0-.12-.07-.18-.22-.18h-5.49c-.15,0-.22.06-.22.18l-.71,3.95a.43.43,0,0,1-.49.41h-3.42c-.35,0-.49-.16-.41-.49L152.6,3a.44.44,0,0,1,.48-.42h4a.45.45,0,0,1,.49.42l5.56,25.38v.15c0,.23-.14.34-.41.34h-3.5C158.9,28.89,158.74,28.75,158.72,28.48Zm-5.79-7.55h4.17c.15,0,.21-.06.19-.19L155.11,8.87c0-.07-.06-.11-.11-.11s-.09,0-.11.11l-2.14,11.87C152.72,20.87,152.78,20.93,152.93,20.93Z"/><path class="cls-1" d="M167.78,28.72a.46.46,0,0,1-.13-.32V18.15l0-.23L162.4,3.13a.36.36,0,0,1,0-.19c0-.22.14-.34.41-.34h3.61a.49.49,0,0,1,.52.38l2.82,9.65c0,.07.06.11.11.11s.09,0,.11-.11L172.76,3a.5.5,0,0,1,.53-.38h3.6a.43.43,0,0,1,.34.14.41.41,0,0,1,0,.39l-5.22,14.79,0,.23V28.4a.42.42,0,0,1-.13.32.44.44,0,0,1-.32.13H168.1A.44.44,0,0,1,167.78,28.72Z"/></svg>